<?xml version="1.0" encoding="utf-8"?>
<!-- Generator: Adobe Illustrator 26.0.2, SVG Export Plug-In . SVG Version: 6.00 Build 0)  -->
<svg version="1.1" id="Laag_1" xmlns="http://www.w3.org/2000/svg" xmlns:xlink="http://www.w3.org/1999/xlink" x="0px" y="0px"
	 viewBox="0 0 100 79.4" style="enable-background:new 0 0 100 79.4;" xml:space="preserve">
<style type="text/css">
	.st0{fill:#FFFFFF;}
</style>
<g>
	<path class="st0" d="M23.4,74.3c-1.7,0-3.2-1.4-3.2-3.2c0-3.2-1.2-6.1-3.5-8.4c-2.2-2.2-5.2-3.5-8.4-3.5c-1.7,0-3.2-1.4-3.2-3.2
		S6.6,53,8.4,53c4.8,0,9.4,1.9,12.8,5.3c3.4,3.4,5.3,8,5.3,12.8C26.5,72.9,25.1,74.3,23.4,74.3z"/>
</g>
<g>
	<path class="st0" d="M38.4,74.3c-1.7,0-3.2-1.4-3.2-3.2c0-7.2-2.8-13.9-7.8-18.9s-11.8-7.8-18.9-7.8c-1.7,0-3.2-1.4-3.2-3.2
		S6.6,38,8.4,38c8.8,0,17.2,3.4,23.4,9.7c6.3,6.3,9.7,14.6,9.7,23.4C41.5,72.9,40.1,74.3,38.4,74.3z"/>
</g>
<g>
	<path class="st0" d="M9.2,74.3c-1,0-2.1-0.4-2.8-1.2c-0.7-0.7-1.2-1.8-1.2-2.8c0-1,0.4-2.1,1.2-2.8c0.7-0.7,1.8-1.2,2.8-1.2
		c1,0,2.1,0.4,2.8,1.2s1.2,1.8,1.2,2.8c0,1-0.4,2.1-1.2,2.8C11.3,73.9,10.2,74.3,9.2,74.3z"/>
</g>
<g>
	<path class="st0" d="M92.1,74.3H52.1c-1.7,0-3.2-1.4-3.2-3.2s1.4-3.2,3.2-3.2h36.8V11H11.6v17.4c0,1.7-1.4,3.2-3.2,3.2
		s-3.2-1.4-3.2-3.2V7.8c0-1.7,1.4-3.2,3.2-3.2h83.7c1.7,0,3.2,1.4,3.2,3.2v63.4C95.2,72.9,93.8,74.3,92.1,74.3z"/>
</g>
</svg>
