<?xml version="1.0" encoding="utf-8"?>
<!-- Generator: Adobe Illustrator 26.0.2, SVG Export Plug-In . SVG Version: 6.00 Build 0)  -->
<svg version="1.1"
	 id="Laag_1" xmlns:cc="http://creativecommons.org/ns#" xmlns:dc="http://purl.org/dc/elements/1.1/" xmlns:inkscape="http://www.inkscape.org/namespaces/inkscape" xmlns:rdf="http://www.w3.org/1999/02/22-rdf-syntax-ns#" xmlns:sodipodi="http://sodipodi.sourceforge.net/DTD/sodipodi-0.dtd" xmlns:svg="http://www.w3.org/2000/svg"
	 xmlns="http://www.w3.org/2000/svg" xmlns:xlink="http://www.w3.org/1999/xlink" x="0px" y="0px" viewBox="0 0 76.9 55.4"
	 style="enable-background:new 0 0 76.9 55.4;" xml:space="preserve">
<style type="text/css">
	.st0{fill:#FFFFFF;}
</style>
<g transform="translate(0,-952.36218)">
	<path class="st0" d="M69.1,954.3c-1.6,0-3,0.7-4.1,1.8c-1.4,1.4-10.3,10.6-19.6,20.1c-7.5,7.7-12.8,13.1-15.8,16.2l-16.8-12.8
		c-2.5-2.2-6.3-1.9-8.5,0.6c-2.2,2.5-1.9,6.3,0.6,8.5c0.2,0.2,0.4,0.3,0.6,0.5l21,16c2.4,1.8,5.8,1.6,7.9-0.5
		c1.4-1.4,10.3-10.5,19.6-20c9.2-9.5,18.8-19.3,19.4-20c2.4-2.3,2.4-6.1,0.1-8.5C72.4,954.9,70.8,954.3,69.1,954.3L69.1,954.3z"/>
</g>
</svg>
