<svg width="74" height="74" viewBox="0 0 74 74" fill="none" xmlns="http://www.w3.org/2000/svg">
<g clip-path="url(#clip0_10_2)">
<path d="M46.9 37.1L71.9 12.2C73.3 10.8 74 8.9 74 7C74 5.2 73.2 3.5 71.9 2.3C70.5 0.9 68.7 0.2 66.8 0.2C65 0.2 63.3 1 62.1 2.3L37.1 27.2L11.9 2.1C10.5 0.7 8.6 0 6.8 0C5 0 3.3 0.8 2.1 2.1C0.7 3.5 0 5.4 0 7.3C0 9.1 0.8 10.8 2.1 12L27.1 36.9L2.1 62C0.7 63.4 0 65.3 0 67.2C0 69 0.8 70.7 2.1 71.9C3.4 73.2 5.3 74 7 74C8.9 74 10.5 73.3 11.9 71.9L37.1 47L62.1 71.9C63.4 73.2 65.3 74 67 74C68.9 74 70.5 73.3 71.9 71.9C73.3 70.5 74 68.6 74 66.7C74 64.9 73.2 63.2 71.9 62L46.9 37.1Z" fill="white"/>
</g>
<defs>
<clipPath id="clip0_10_2">
<rect width="74" height="74" fill="white"/>
</clipPath>
</defs>
</svg>
